<mxfile host="app.diagrams.net" agent="Mozilla/5.0 (Windows NT 10.0; Win64; x64; rv:135.0) Gecko/20100101 Firefox/135.0" version="26.0.16">
  <diagram name="Page-1" id="BjtxJ6DjZa8bPU-UOvaE">
    <mxGraphModel dx="1039" dy="675" grid="0" gridSize="10" guides="1" tooltips="1" connect="1" arrows="1" fold="1" page="0" pageScale="1" pageWidth="850" pageHeight="1100" math="0" shadow="0">
      <root>
        <mxCell id="0" />
        <mxCell id="1" parent="0" />
        <mxCell id="Gd3wovYUvBMeUI6Ai5CM-1" value="ResearchProject" style="swimlane;fontStyle=1;align=center;verticalAlign=top;childLayout=stackLayout;horizontal=1;startSize=26;horizontalStack=0;resizeParent=1;resizeParentMax=0;resizeLast=0;collapsible=1;marginBottom=0;whiteSpace=wrap;html=1;" parent="1" vertex="1">
          <mxGeometry x="470" y="764" width="220" height="245" as="geometry" />
        </mxCell>
        <mxCell id="Gd3wovYUvBMeUI6Ai5CM-2" value="&lt;div&gt;- title: CharField&lt;/div&gt;&lt;div&gt;- abstract: TextField&lt;/div&gt;&lt;div&gt;- author: ForeignKey()&lt;/div&gt;&lt;div&gt;- collaborators: ManyToManyField()&lt;/div&gt;&lt;div&gt;- faculty_advisor: ForeignKey()&lt;/div&gt;&lt;div&gt;- submission_date: DateTimeField&lt;/div&gt;&lt;div&gt;- approval_status: CharField&lt;/div&gt;&lt;div&gt;- poster_image: imageField&lt;/div&gt;&lt;div&gt;- video_link: URLField&lt;/div&gt;&lt;div&gt;- presentation_file: FileField&lt;/div&gt;&lt;div&gt;- pdf_file:FileField&lt;/div&gt;" style="text;strokeColor=none;fillColor=none;align=left;verticalAlign=top;spacingLeft=4;spacingRight=4;overflow=hidden;rotatable=0;points=[[0,0.5],[1,0.5]];portConstraint=eastwest;whiteSpace=wrap;html=1;" parent="Gd3wovYUvBMeUI6Ai5CM-1" vertex="1">
          <mxGeometry y="26" width="220" height="184" as="geometry" />
        </mxCell>
        <mxCell id="Gd3wovYUvBMeUI6Ai5CM-3" value="" style="line;strokeWidth=1;fillColor=none;align=left;verticalAlign=middle;spacingTop=-1;spacingLeft=3;spacingRight=3;rotatable=0;labelPosition=right;points=[];portConstraint=eastwest;strokeColor=inherit;" parent="Gd3wovYUvBMeUI6Ai5CM-1" vertex="1">
          <mxGeometry y="210" width="220" height="35" as="geometry" />
        </mxCell>
        <mxCell id="Gd3wovYUvBMeUI6Ai5CM-4" value="Colloquium" style="swimlane;fontStyle=1;align=center;verticalAlign=top;childLayout=stackLayout;horizontal=1;startSize=26;horizontalStack=0;resizeParent=1;resizeParentMax=0;resizeLast=0;collapsible=1;marginBottom=0;whiteSpace=wrap;html=1;" parent="1" vertex="1">
          <mxGeometry x="575" y="555" width="203" height="158" as="geometry" />
        </mxCell>
        <mxCell id="Gd3wovYUvBMeUI6Ai5CM-5" value="&lt;div&gt;- title: CharField&lt;/div&gt;&lt;div&gt;- presenter: models.foreignKey&lt;br&gt;- date: &lt;br&gt;&lt;/div&gt;&lt;div&gt;- description:&lt;/div&gt;&lt;div&gt;- video_link&lt;/div&gt;&lt;div&gt;- presentation_file&lt;/div&gt;" style="text;strokeColor=none;fillColor=none;align=left;verticalAlign=top;spacingLeft=4;spacingRight=4;overflow=hidden;rotatable=0;points=[[0,0.5],[1,0.5]];portConstraint=eastwest;whiteSpace=wrap;html=1;" parent="Gd3wovYUvBMeUI6Ai5CM-4" vertex="1">
          <mxGeometry y="26" width="203" height="98" as="geometry" />
        </mxCell>
        <mxCell id="Gd3wovYUvBMeUI6Ai5CM-6" value="" style="line;strokeWidth=1;fillColor=none;align=left;verticalAlign=middle;spacingTop=-1;spacingLeft=3;spacingRight=3;rotatable=0;labelPosition=right;points=[];portConstraint=eastwest;strokeColor=inherit;" parent="Gd3wovYUvBMeUI6Ai5CM-4" vertex="1">
          <mxGeometry y="124" width="203" height="8" as="geometry" />
        </mxCell>
        <mxCell id="Gd3wovYUvBMeUI6Ai5CM-7" value="+ method(type): type" style="text;strokeColor=none;fillColor=none;align=left;verticalAlign=top;spacingLeft=4;spacingRight=4;overflow=hidden;rotatable=0;points=[[0,0.5],[1,0.5]];portConstraint=eastwest;whiteSpace=wrap;html=1;" parent="Gd3wovYUvBMeUI6Ai5CM-4" vertex="1">
          <mxGeometry y="132" width="203" height="26" as="geometry" />
        </mxCell>
        <mxCell id="Gd3wovYUvBMeUI6Ai5CM-8" value="User" style="swimlane;fontStyle=1;align=center;verticalAlign=top;childLayout=stackLayout;horizontal=1;startSize=26;horizontalStack=0;resizeParent=1;resizeParentMax=0;resizeLast=0;collapsible=1;marginBottom=0;whiteSpace=wrap;html=1;" parent="1" vertex="1">
          <mxGeometry x="450" y="160" width="260" height="114" as="geometry" />
        </mxCell>
        <mxCell id="Gd3wovYUvBMeUI6Ai5CM-9" value="&lt;div&gt;- username: CharField&lt;/div&gt;&lt;div&gt;- password: CharField&lt;/div&gt;" style="text;strokeColor=none;fillColor=none;align=left;verticalAlign=top;spacingLeft=4;spacingRight=4;overflow=hidden;rotatable=0;points=[[0,0.5],[1,0.5]];portConstraint=eastwest;whiteSpace=wrap;html=1;" parent="Gd3wovYUvBMeUI6Ai5CM-8" vertex="1">
          <mxGeometry y="26" width="260" height="54" as="geometry" />
        </mxCell>
        <mxCell id="Gd3wovYUvBMeUI6Ai5CM-10" value="" style="line;strokeWidth=1;fillColor=none;align=left;verticalAlign=middle;spacingTop=-1;spacingLeft=3;spacingRight=3;rotatable=0;labelPosition=right;points=[];portConstraint=eastwest;strokeColor=inherit;" parent="Gd3wovYUvBMeUI6Ai5CM-8" vertex="1">
          <mxGeometry y="80" width="260" height="8" as="geometry" />
        </mxCell>
        <mxCell id="Gd3wovYUvBMeUI6Ai5CM-11" value="+ method(type): type" style="text;strokeColor=none;fillColor=none;align=left;verticalAlign=top;spacingLeft=4;spacingRight=4;overflow=hidden;rotatable=0;points=[[0,0.5],[1,0.5]];portConstraint=eastwest;whiteSpace=wrap;html=1;" parent="Gd3wovYUvBMeUI6Ai5CM-8" vertex="1">
          <mxGeometry y="88" width="260" height="26" as="geometry" />
        </mxCell>
        <mxCell id="Gd3wovYUvBMeUI6Ai5CM-12" value="Faculty" style="swimlane;fontStyle=1;align=center;verticalAlign=top;childLayout=stackLayout;horizontal=1;startSize=26;horizontalStack=0;resizeParent=1;resizeParentMax=0;resizeLast=0;collapsible=1;marginBottom=0;whiteSpace=wrap;html=1;" parent="1" vertex="1">
          <mxGeometry x="397" y="315" width="160" height="101" as="geometry" />
        </mxCell>
        <mxCell id="Gd3wovYUvBMeUI6Ai5CM-13" value="&lt;div&gt;- username: CharField&lt;/div&gt;&lt;div&gt;- password: CharField&lt;/div&gt;" style="text;strokeColor=none;fillColor=none;align=left;verticalAlign=top;spacingLeft=4;spacingRight=4;overflow=hidden;rotatable=0;points=[[0,0.5],[1,0.5]];portConstraint=eastwest;whiteSpace=wrap;html=1;" parent="Gd3wovYUvBMeUI6Ai5CM-12" vertex="1">
          <mxGeometry y="26" width="160" height="41" as="geometry" />
        </mxCell>
        <mxCell id="Gd3wovYUvBMeUI6Ai5CM-14" value="" style="line;strokeWidth=1;fillColor=none;align=left;verticalAlign=middle;spacingTop=-1;spacingLeft=3;spacingRight=3;rotatable=0;labelPosition=right;points=[];portConstraint=eastwest;strokeColor=inherit;" parent="Gd3wovYUvBMeUI6Ai5CM-12" vertex="1">
          <mxGeometry y="67" width="160" height="8" as="geometry" />
        </mxCell>
        <mxCell id="Gd3wovYUvBMeUI6Ai5CM-15" value="+ method(type): type" style="text;strokeColor=none;fillColor=none;align=left;verticalAlign=top;spacingLeft=4;spacingRight=4;overflow=hidden;rotatable=0;points=[[0,0.5],[1,0.5]];portConstraint=eastwest;whiteSpace=wrap;html=1;" parent="Gd3wovYUvBMeUI6Ai5CM-12" vertex="1">
          <mxGeometry y="75" width="160" height="26" as="geometry" />
        </mxCell>
        <mxCell id="Gd3wovYUvBMeUI6Ai5CM-16" value="&lt;div&gt;Capsone Project&lt;/div&gt;&lt;div&gt;&lt;br&gt;&lt;/div&gt;" style="swimlane;fontStyle=1;align=center;verticalAlign=top;childLayout=stackLayout;horizontal=1;startSize=26;horizontalStack=0;resizeParent=1;resizeParentMax=0;resizeLast=0;collapsible=1;marginBottom=0;whiteSpace=wrap;html=1;" parent="1" vertex="1">
          <mxGeometry x="387" y="560" width="160" height="143" as="geometry" />
        </mxCell>
        <mxCell id="Gd3wovYUvBMeUI6Ai5CM-17" value="&lt;div&gt;- title: CharField&lt;/div&gt;&lt;div&gt;- presenter: &lt;br&gt;&lt;/div&gt;&lt;div&gt;- date: dateField&lt;/div&gt;&lt;div&gt;- video_link: URLField&lt;/div&gt;&lt;div&gt;- presentation_file: FileField&lt;/div&gt;" style="text;strokeColor=none;fillColor=none;align=left;verticalAlign=top;spacingLeft=4;spacingRight=4;overflow=hidden;rotatable=0;points=[[0,0.5],[1,0.5]];portConstraint=eastwest;whiteSpace=wrap;html=1;" parent="Gd3wovYUvBMeUI6Ai5CM-16" vertex="1">
          <mxGeometry y="26" width="160" height="83" as="geometry" />
        </mxCell>
        <mxCell id="Gd3wovYUvBMeUI6Ai5CM-18" value="" style="line;strokeWidth=1;fillColor=none;align=left;verticalAlign=middle;spacingTop=-1;spacingLeft=3;spacingRight=3;rotatable=0;labelPosition=right;points=[];portConstraint=eastwest;strokeColor=inherit;" parent="Gd3wovYUvBMeUI6Ai5CM-16" vertex="1">
          <mxGeometry y="109" width="160" height="8" as="geometry" />
        </mxCell>
        <mxCell id="Gd3wovYUvBMeUI6Ai5CM-19" value="+ method(type): type" style="text;strokeColor=none;fillColor=none;align=left;verticalAlign=top;spacingLeft=4;spacingRight=4;overflow=hidden;rotatable=0;points=[[0,0.5],[1,0.5]];portConstraint=eastwest;whiteSpace=wrap;html=1;" parent="Gd3wovYUvBMeUI6Ai5CM-16" vertex="1">
          <mxGeometry y="117" width="160" height="26" as="geometry" />
        </mxCell>
        <mxCell id="Gd3wovYUvBMeUI6Ai5CM-20" value="Admin" style="swimlane;fontStyle=1;align=center;verticalAlign=top;childLayout=stackLayout;horizontal=1;startSize=26;horizontalStack=0;resizeParent=1;resizeParentMax=0;resizeLast=0;collapsible=1;marginBottom=0;whiteSpace=wrap;html=1;" parent="1" vertex="1">
          <mxGeometry x="601" y="315" width="160" height="101" as="geometry" />
        </mxCell>
        <mxCell id="Gd3wovYUvBMeUI6Ai5CM-21" value="&lt;div&gt;- username: CharField&lt;/div&gt;&lt;div&gt;- password: CharField&lt;/div&gt;" style="text;strokeColor=none;fillColor=none;align=left;verticalAlign=top;spacingLeft=4;spacingRight=4;overflow=hidden;rotatable=0;points=[[0,0.5],[1,0.5]];portConstraint=eastwest;whiteSpace=wrap;html=1;" parent="Gd3wovYUvBMeUI6Ai5CM-20" vertex="1">
          <mxGeometry y="26" width="160" height="41" as="geometry" />
        </mxCell>
        <mxCell id="Gd3wovYUvBMeUI6Ai5CM-22" value="" style="line;strokeWidth=1;fillColor=none;align=left;verticalAlign=middle;spacingTop=-1;spacingLeft=3;spacingRight=3;rotatable=0;labelPosition=right;points=[];portConstraint=eastwest;strokeColor=inherit;" parent="Gd3wovYUvBMeUI6Ai5CM-20" vertex="1">
          <mxGeometry y="67" width="160" height="8" as="geometry" />
        </mxCell>
        <mxCell id="Gd3wovYUvBMeUI6Ai5CM-23" value="+ method(type): type" style="text;strokeColor=none;fillColor=none;align=left;verticalAlign=top;spacingLeft=4;spacingRight=4;overflow=hidden;rotatable=0;points=[[0,0.5],[1,0.5]];portConstraint=eastwest;whiteSpace=wrap;html=1;" parent="Gd3wovYUvBMeUI6Ai5CM-20" vertex="1">
          <mxGeometry y="75" width="160" height="26" as="geometry" />
        </mxCell>
        <mxCell id="mOE5na26kngl0ICl_-Mf-1" value="&lt;p style=&quot;margin:0px;margin-top:4px;text-align:center;&quot;&gt;&lt;b&gt;Pages&lt;/b&gt;&lt;/p&gt;&lt;hr size=&quot;1&quot; style=&quot;border-style:solid;&quot;&gt;&lt;p style=&quot;margin:0px;margin-left:4px;&quot;&gt;+ field: Type&lt;/p&gt;&lt;hr size=&quot;1&quot; style=&quot;border-style:solid;&quot;&gt;&lt;p style=&quot;margin:0px;margin-left:4px;&quot;&gt;+ method(): Type&lt;/p&gt;" style="verticalAlign=top;align=left;overflow=fill;html=1;whiteSpace=wrap;" parent="1" vertex="1">
          <mxGeometry x="793" y="444" width="160" height="90" as="geometry" />
        </mxCell>
        <mxCell id="mOE5na26kngl0ICl_-Mf-2" value="&lt;p style=&quot;margin:0px;margin-top:4px;text-align:center;&quot;&gt;&lt;b&gt;Queries&lt;/b&gt;&lt;/p&gt;&lt;hr size=&quot;1&quot; style=&quot;border-style:solid;&quot;&gt;&lt;p style=&quot;margin:0px;margin-left:4px;&quot;&gt;+ field: Type&lt;/p&gt;&lt;hr size=&quot;1&quot; style=&quot;border-style:solid;&quot;&gt;&lt;p style=&quot;margin:0px;margin-left:4px;&quot;&gt;+ method(): Type&lt;/p&gt;" style="verticalAlign=top;align=left;overflow=fill;html=1;whiteSpace=wrap;" parent="1" vertex="1">
          <mxGeometry x="217" y="427" width="160" height="90" as="geometry" />
        </mxCell>
      </root>
    </mxGraphModel>
  </diagram>
</mxfile>
